<?xml version="1.0" encoding="UTF-8" standalone="no"?>
<svg
   xmlns:osb="http://www.openswatchbook.org/uri/2009/osb"
   xmlns:dc="http://purl.org/dc/elements/1.1/"
   xmlns:cc="http://creativecommons.org/ns#"
   xmlns:rdf="http://www.w3.org/1999/02/22-rdf-syntax-ns#"
   xmlns:svg="http://www.w3.org/2000/svg"
   xmlns="http://www.w3.org/2000/svg"
   xmlns:xlink="http://www.w3.org/1999/xlink"
   xmlns:sodipodi="http://sodipodi.sourceforge.net/DTD/sodipodi-0.dtd"
   xmlns:inkscape="http://www.inkscape.org/namespaces/inkscape"
   version="1.1"
   width="231.7mm"
   height="123.7mm"
   viewBox=" 0 0 820.984927 438.307447"
   id="svg2"
   inkscape:version="0.91 r13725"
   sodipodi:docname="Arduino_Hülle_KRAVUR.svg">
  <metadata
     id="metadata32">
    <rdf:RDF>
      <cc:Work
         rdf:about="">
        <dc:format>image/svg+xml</dc:format>
        <dc:type
           rdf:resource="http://purl.org/dc/dcmitype/StillImage" />
        <dc:title />
      </cc:Work>
    </rdf:RDF>
  </metadata>
  <defs
     id="defs30">
    <linearGradient
       inkscape:collect="always"
       xlink:href="#linearGradient4174"
       id="linearGradient4178"
       x1="22.570398"
       y1="138.93291"
       x2="68.633392"
       y2="138.93291"
       gradientUnits="userSpaceOnUse"
       gradientTransform="matrix(0.99998303,0,0,1.0000002,602.21768,178.75645)" />
    <linearGradient
       id="linearGradient4174"
       osb:paint="solid">
      <stop
         style="stop-color:#000000;stop-opacity:1;"
         offset="0"
         id="stop4176" />
    </linearGradient>
    <linearGradient
       inkscape:collect="always"
       xlink:href="#linearGradient4174"
       id="linearGradient4189"
       x1="40.286953"
       y1="64.52346"
       x2="89.89325"
       y2="64.52346"
       gradientUnits="userSpaceOnUse"
       gradientTransform="translate(571.68181,181.32631)" />
    <linearGradient
       inkscape:collect="always"
       xlink:href="#linearGradient4174"
       id="linearGradient4178-6"
       x1="22.570398"
       y1="138.93291"
       x2="68.633392"
       y2="138.93291"
       gradientUnits="userSpaceOnUse"
       gradientTransform="matrix(0.99998385,0,0,1.000001,712.76356,177.99066)" />
  </defs>
  <sodipodi:namedview
     pagecolor="#ffffff"
     bordercolor="#666666"
     borderopacity="1"
     objecttolerance="10"
     gridtolerance="10"
     guidetolerance="10"
     inkscape:pageopacity="0"
     inkscape:pageshadow="2"
     inkscape:window-width="1280"
     inkscape:window-height="657"
     id="namedview28"
     showgrid="true"
     inkscape:zoom="0.4202273"
     inkscape:cx="-48.594875"
     inkscape:cy="390.82548"
     inkscape:window-x="-8"
     inkscape:window-y="-8"
     inkscape:window-maximized="1"
     inkscape:current-layer="svg2">
    <inkscape:grid
       type="xygrid"
       id="grid3360"
       color="#000000"
       opacity="0.1254902"
       empcolor="#6a6a6a"
       empopacity="0.25098039"
       units="mm"
       spacingx="1.771655"
       spacingy="1.7716551" />
  </sodipodi:namedview>
  <!-- Front-->
  <g
     transform="translate(22.5000185, 22.5000185) "
     id="g4"
     style="stroke-width:0.0354331;stroke-miterlimit:4;stroke-dasharray:none">
    <polygon
       style="stroke:#000000;fill:none;stroke-width:0.0354331;stroke-miterlimit:4;stroke-dasharray:none"
       points="0, 0 45.6732659, 0 45.6732659, 14.17324 90.354405, 14.17324 90.354405, 0 122.74025839999999, 0 122.74025839999999, 14.17324 154.133985, 14.17324 154.133985, 0 186.5198384, 0 186.5198384, 14.17324 231.2009775, 14.17324 231.2009775, 0 276.8742434, 0 276.8742434, 34.51183939999999 262.7010034, 34.51183939999999 262.7010034, 68.03155199999999 276.8742434, 68.03155199999999 276.8742434, 102.54339139999999 262.7010034, 102.54339139999999 262.7010034, 136.06310399999998 276.8742434, 136.06310399999998 276.8742434, 170.5749434 231.2009775, 170.5749434 231.2009775, 156.4017034 186.5198384, 156.4017034 186.5198384, 170.5749434 154.133985, 170.5749434 154.133985, 156.4017034 122.74025839999999, 156.4017034 122.74025839999999, 170.5749434 90.354405, 170.5749434 90.354405, 156.4017034 45.6732659, 156.4017034 45.6732659, 170.5749434 0, 170.57494339999997 0, 136.06310399999998 14.17324, 136.06310399999998 14.17324, 102.54339139999999 0, 102.54339139999999 0, 68.03155199999999 14.17324, 68.03155199999999 14.17324, 34.51183939999999 0, 34.51183939999999 "
       id="polygon6" />
  </g>
  <!-- Back-->
  <g
     transform="translate(299.37426189999996, 22.5000185) "
     id="g8"
     style="stroke-width:0.0354331;stroke-miterlimit:4;stroke-dasharray:none">
    <polygon
       style="stroke:#000000;fill:none;stroke-width:0.0354331;stroke-miterlimit:4;stroke-dasharray:none"
       points="0, 0 45.6732659, 0 45.6732659, 14.17324 90.354405, 14.17324 90.354405, 0 122.74025839999999, 0 122.74025839999999, 14.17324 154.133985, 14.17324 154.133985, 0 186.5198384, 0 186.5198384, 14.17324 231.2009775, 14.17324 231.2009775, 0 276.8742434, 0 276.8742434, 34.51183939999999 262.7010034, 34.51183939999999 262.7010034, 68.03155199999999 276.8742434, 68.03155199999999 276.8742434, 102.54339139999999 262.7010034, 102.54339139999999 262.7010034, 136.06310399999998 276.8742434, 136.06310399999998 276.8742434, 170.5749434 231.2009775, 170.5749434 231.2009775, 156.4017034 186.5198384, 156.4017034 186.5198384, 170.5749434 154.133985, 170.5749434 154.133985, 156.4017034 122.74025839999999, 156.4017034 122.74025839999999, 170.5749434 90.354405, 170.5749434 90.354405, 156.4017034 45.6732659, 156.4017034 45.6732659, 170.5749434 0, 170.57494339999997 0, 136.06310399999998 14.17324, 136.06310399999998 14.17324, 102.54339139999999 0, 102.54339139999999 0, 68.03155199999999 14.17324, 68.03155199999999 14.17324, 34.51183939999999 0, 34.51183939999999 "
       id="polygon10" />
  </g>
  <!-- Left-->
  <g
     transform="translate(576.2485053, 22.5000185) "
     id="g12"
     style="stroke-width:0.0354331;stroke-miterlimit:4;stroke-dasharray:none">
    <polygon
       style="stroke:#000000;fill:none;stroke-width:0.0354331;stroke-miterlimit:4;stroke-dasharray:none"
       points="14.17324, 0 48.3307484, 0 48.3307484, 14.17324 95.66937, 14.17324 95.66937, 0 128.0552234, 0 128.0552234, 14.17324 175.393845, 14.17324 175.393845, 0 209.5513534, 0 209.5513534, 34.015775999999995 223.7245934, 34.015775999999995 223.7245934, 68.52761539999999 209.5513534, 68.52761539999999 209.5513534, 102.047328 223.7245934, 102.047328 223.7245934, 136.55916739999998 209.5513534, 136.55916739999998 209.5513534, 170.5749434 175.393845, 170.5749434 175.393845, 156.4017034 128.0552234, 156.4017034 128.0552234, 170.5749434 95.66937, 170.5749434 95.66937, 156.4017034 48.3307484, 156.4017034 48.3307484, 170.5749434 14.17324, 170.57494339999997 14.17324, 136.55916739999998 0, 136.55916739999998 0, 102.047328 14.17324, 102.047328 14.17324, 68.52761539999999 0, 68.52761539999999 0, 34.015775999999995 14.17324, 34.015775999999995 "
       id="polygon14" />
  </g>
  <!-- Right-->
  <g
     transform="translate(576.2485053, 193.0749619) "
     id="g16"
     style="stroke-width:0.0354331;stroke-miterlimit:4;stroke-dasharray:none">
    <polygon
       style="stroke:#000000;fill:none;stroke-width:0.0354331;stroke-miterlimit:4;stroke-dasharray:none"
       points="14.17324, 0 48.3307484, 0 48.3307484, 14.17324 95.66937, 14.17324 95.66937, 0 128.0552234, 0 128.0552234, 14.17324 175.393845, 14.17324 175.393845, 0 209.5513534, 0 209.5513534, 34.015775999999995 223.7245934, 34.015775999999995 223.7245934, 68.52761539999999 209.5513534, 68.52761539999999 209.5513534, 102.047328 223.7245934, 102.047328 223.7245934, 136.55916739999998 209.5513534, 136.55916739999998 209.5513534, 170.5749434 175.393845, 170.5749434 175.393845, 156.4017034 128.0552234, 156.4017034 128.0552234, 170.5749434 95.66937, 170.5749434 95.66937, 156.4017034 48.3307484, 156.4017034 48.3307484, 170.5749434 14.17324, 170.57494339999997 14.17324, 136.55916739999998 0, 136.55916739999998 0, 102.047328 14.17324, 102.047328 14.17324, 68.52761539999999 0, 68.52761539999999 0, 34.015775999999995 14.17324, 34.015775999999995 "
       id="polygon18" />
  </g>
  <!-- Top-->
  <g
     transform="translate(22.5000185, 193.0749619) "
     id="g20"
     style="stroke-width:0.0354331;stroke-miterlimit:4;stroke-dasharray:none">
    <polygon
       style="stroke:#000000;fill:none;stroke-width:0.0354331;stroke-miterlimit:4;stroke-dasharray:none"
       points="14.17324, 14.17324 45.1772025, 14.17324 45.1772025, 0 90.8504684, 0 90.8504684, 14.17324 122.24419499999999, 14.17324 122.24419499999999, 0 154.6300484, 0 154.6300484, 14.17324 186.023775, 14.17324 186.023775, 0 231.6970409, 0 231.6970409, 14.17324 262.7010034, 14.17324 262.7010034, 47.834685 276.8742434, 47.834685 276.8742434, 96.1654334 262.7010034, 96.1654334 262.7010034, 127.55915999999999 276.8742434, 127.55915999999999 276.8742434, 175.8899084 262.7010034, 175.8899084 262.7010034, 209.5513534 231.6970409, 209.5513534 231.6970409, 223.7245934 186.023775, 223.7245934 186.023775, 209.5513534 154.6300484, 209.5513534 154.6300484, 223.7245934 122.24419499999999, 223.7245934 122.24419499999999, 209.5513534 90.8504684, 209.5513534 90.8504684, 223.7245934 45.1772025, 223.7245934 45.1772025, 209.5513534 14.17324, 209.5513534 14.17324, 175.8899084 0, 175.8899084 0, 127.55915999999999 14.17324, 127.55915999999999 14.17324, 96.1654334 0, 96.1654334 0, 47.834685 14.17324, 47.834685 "
       id="polygon22" />
  </g>
  <!-- Bottom-->
  <g
     transform="translate(299.37426189999996, 193.0749619) "
     id="g24"
     style="stroke-width:0.0354331;stroke-miterlimit:4;stroke-dasharray:none">
    <polygon
       style="stroke:#000000;fill:none;stroke-width:0.0354331;stroke-miterlimit:4;stroke-dasharray:none"
       points="14.17324, 14.17324 45.1772025, 14.17324 45.1772025, 0 90.8504684, 0 90.8504684, 14.17324 122.24419499999999, 14.17324 122.24419499999999, 0 154.6300484, 0 154.6300484, 14.17324 186.023775, 14.17324 186.023775, 0 231.6970409, 0 231.6970409, 14.17324 262.7010034, 14.17324 262.7010034, 47.834685 276.8742434, 47.834685 276.8742434, 96.1654334 262.7010034, 96.1654334 262.7010034, 127.55915999999999 276.8742434, 127.55915999999999 276.8742434, 175.8899084 262.7010034, 175.8899084 262.7010034, 209.5513534 231.6970409, 209.5513534 231.6970409, 223.7245934 186.023775, 223.7245934 186.023775, 209.5513534 154.6300484, 209.5513534 154.6300484, 223.7245934 122.24419499999999, 223.7245934 122.24419499999999, 209.5513534 90.8504684, 209.5513534 90.8504684, 223.7245934 45.1772025, 223.7245934 45.1772025, 209.5513534 14.17324, 209.5513534 14.17324, 175.8899084 0, 175.8899084 0, 127.55915999999999 14.17324, 127.55915999999999 14.17324, 96.1654334 0, 96.1654334 0, 47.834685 14.17324, 47.834685 "
       id="polygon26" />
  </g>
  <rect
     style="fill:#ffffff;fill-opacity:1;stroke:url(#linearGradient4178);stroke-width:0.0354331;stroke-miterlimit:4;stroke-dasharray:none"
     id="rect4166"
     width="46.062252"
     height="42.519726"
     x="624.78772"
     y="296.42963" />
  <rect
     style="fill:#ffffff;fill-opacity:1;stroke:url(#linearGradient4189);stroke-width:0.0354331;stroke-miterlimit:4;stroke-dasharray:none"
     id="rect4183"
     width="60.236271"
     height="49.606342"
     x="611.96881"
     y="228.13327" />
  <rect
     style="fill:#ffffff;fill-opacity:1;stroke:url(#linearGradient4178-6);stroke-width:0.0354331;stroke-miterlimit:4;stroke-dasharray:none"
     id="rect4166-6"
     width="35.433071"
     height="42.519684"
     x="735.33356"
     y="295.66397" />
  <path
     style="fill:none;fill-rule:evenodd;stroke:#000000;stroke-width:3.54331002;stroke-linecap:butt;stroke-linejoin:miter;stroke-opacity:1;stroke-miterlimit:4;stroke-dasharray:none"
     d="m 382.28402,221.16617 0,12.6437 -12.64368,0 0,95.34975 12.64368,0 0,12.6437 12.64371,0 0,12.64369 88.50586,0 0,-12.64369 12.6437,0 0,-12.6437 12.64369,0 0,-95.34975 -12.64369,0 0,-12.6437 -25.28739,0 0,12.6437 -12.64369,0 0,12.64369 -37.93111,0 0,-12.64369 -12.64367,0 0,-12.6437 z"
     id="path4156"
     inkscape:connector-curvature="0"
     sodipodi:nodetypes="ccccccccccccccccccccccccc" />
  <path
     style="fill:none;fill-rule:evenodd;stroke:#000000;stroke-width:3.54331002;stroke-linecap:butt;stroke-linejoin:miter;stroke-opacity:1;stroke-miterlimit:4;stroke-dasharray:none"
     d="m 382.28402,316.51593 12.64371,0 0,12.64369 12.6437,0 0,12.6437 63.21847,0 0,-12.6437 12.64369,0 0,-12.64369 12.6437,0 0,-37.93109 -12.6437,0 0,-12.64369 -88.50586,0 0,12.64369 -12.64371,0 z"
     id="path4158"
     inkscape:connector-curvature="0"
     sodipodi:nodetypes="ccccccccccccccccc" />
  <path
     style="fill:none;fill-rule:evenodd;stroke:#000000;stroke-width:3.54331002;stroke-linecap:butt;stroke-linejoin:miter;stroke-opacity:1;stroke-miterlimit:4;stroke-dasharray:none"
     d="m 407.57143,303.87223 0,-12.64369 -12.6437,0 0,12.64369 z"
     id="path4162"
     inkscape:connector-curvature="0"
     sodipodi:nodetypes="ccccc" />
  <path
     style="fill:none;fill-rule:evenodd;stroke:#000000;stroke-width:3.54331002;stroke-linecap:butt;stroke-linejoin:miter;stroke-opacity:1;stroke-miterlimit:4;stroke-dasharray:none"
     d="m 470.7899,303.87223 12.64369,0 0,-12.64369 -12.64369,0 z"
     id="path4164"
     inkscape:connector-curvature="0"
     sodipodi:nodetypes="ccccc" />
  <path
     style="fill:none;fill-rule:evenodd;stroke:#000000;stroke-width:3.54331002;stroke-linecap:butt;stroke-linejoin:miter;stroke-opacity:1;stroke-miterlimit:4;stroke-dasharray:none"
     d="m 420.2151,329.15962 37.93111,0 0,-12.64369 0,-12.6437 -12.6437,0 0,12.6437 -12.6437,0 0,-12.6437 -12.64371,0 z"
     id="path4166"
     inkscape:connector-curvature="0"
     sodipodi:nodetypes="cccccccccc" />
  <text
     xml:space="preserve"
     style="font-style:normal;font-weight:normal;font-size:20.00001717px;line-height:125%;font-family:sans-serif;letter-spacing:0px;word-spacing:0px;fill:#000000;fill-opacity:1;stroke:none;stroke-width:7.08662003;stroke-linecap:butt;stroke-linejoin:miter;stroke-opacity:1;stroke-miterlimit:4;stroke-dasharray:none"
     x="366.86584"
     y="374.52045"
     id="text4168"
     sodipodi:linespacing="125%"><tspan
       sodipodi:role="line"
       x="366.86584"
       y="374.52045"
       id="tspan4172"
       style="font-style:normal;font-variant:normal;font-weight:bold;font-stretch:normal;font-size:20.00001717px;font-family:'Berlin Sans FB Demi';-inkscape-font-specification:'Berlin Sans FB Demi Bold';stroke-width:7.08662003;stroke-miterlimit:4;stroke-dasharray:none">JUGEND HACKT</tspan><tspan
       sodipodi:role="line"
       x="366.86584"
       y="394.40314"
       id="tspan4176"
       style="font-style:normal;font-variant:normal;font-weight:bold;font-stretch:normal;font-size:15.0000124px;font-family:'Berlin Sans FB Demi';-inkscape-font-specification:'Berlin Sans FB Demi Bold';stroke-width:7.08662003;stroke-miterlimit:4;stroke-dasharray:none">OST</tspan></text>
  <text
     xml:space="preserve"
     style="font-style:normal;font-weight:normal;font-size:20.00001717px;line-height:125%;font-family:sans-serif;letter-spacing:0px;word-spacing:0px;fill:#000000;fill-opacity:1;stroke:none;stroke-width:7.08662003;stroke-linecap:butt;stroke-linejoin:miter;stroke-opacity:1;stroke-miterlimit:4;stroke-dasharray:none"
     x="328.69116"
     y="66.679535"
     id="text4168-9"
     sodipodi:linespacing="125%"><tspan
       sodipodi:role="line"
       x="328.69116"
       y="66.679535"
       id="tspan4176-3"
       style="font-style:normal;font-variant:normal;font-weight:bold;font-stretch:normal;font-size:25.00002098px;font-family:'Berlin Sans FB Demi';-inkscape-font-specification:'Berlin Sans FB Demi Bold';stroke-width:7.08662003;stroke-miterlimit:4;stroke-dasharray:none">Martin</tspan><tspan
       sodipodi:role="line"
       x="328.69116"
       y="97.929558"
       style="font-style:normal;font-variant:normal;font-weight:bold;font-stretch:normal;font-size:25.00002098px;font-family:'Berlin Sans FB Demi';-inkscape-font-specification:'Berlin Sans FB Demi Bold';stroke-width:7.08662003;stroke-miterlimit:4;stroke-dasharray:none"
       id="tspan4201">Maurice</tspan><tspan
       sodipodi:role="line"
       x="328.69116"
       y="129.17958"
       style="font-style:normal;font-variant:normal;font-weight:bold;font-stretch:normal;font-size:25.00002098px;font-family:'Berlin Sans FB Demi';-inkscape-font-specification:'Berlin Sans FB Demi Bold';stroke-width:7.08662003;stroke-miterlimit:4;stroke-dasharray:none"
       id="tspan4203">Robin</tspan><tspan
       sodipodi:role="line"
       x="328.69116"
       y="160.42961"
       style="font-style:normal;font-variant:normal;font-weight:bold;font-stretch:normal;font-size:25.00002098px;font-family:'Berlin Sans FB Demi';-inkscape-font-specification:'Berlin Sans FB Demi Bold';stroke-width:7.08662003;stroke-miterlimit:4;stroke-dasharray:none"
       id="tspan4205">Julian</tspan></text>
  <text
     xml:space="preserve"
     style="font-style:normal;font-weight:normal;font-size:40px;line-height:125%;font-family:sans-serif;letter-spacing:0px;word-spacing:0px;fill:#000000;fill-opacity:1;stroke:none;stroke-width:7.08662003;stroke-linecap:butt;stroke-linejoin:miter;stroke-opacity:1;stroke-miterlimit:4;stroke-dasharray:none"
     x="620.07922"
     y="216.85057"
     id="text4207"
     sodipodi:linespacing="125%"><tspan
       sodipodi:role="line"
       id="tspan4209"
       x="620.07922"
       y="216.85057" /></text>
  <text
     xml:space="preserve"
     style="font-style:normal;font-weight:normal;font-size:20.00001717px;line-height:125%;font-family:sans-serif;letter-spacing:0px;word-spacing:0px;fill:#000000;fill-opacity:1;stroke:none;stroke-width:7.08662003;stroke-linecap:butt;stroke-linejoin:miter;stroke-opacity:1;stroke-miterlimit:4;stroke-dasharray:none"
     x="619.75189"
     y="224.09926"
     id="text4168-4"
     sodipodi:linespacing="125%"><tspan
       sodipodi:role="line"
       x="619.75189"
       y="224.09926"
       id="tspan4176-6"
       style="font-style:normal;font-variant:normal;font-weight:bold;font-stretch:normal;font-size:11.25000954px;line-height:125%;font-family:'Berlin Sans FB Demi';-inkscape-font-specification:'Berlin Sans FB Demi, Bold';text-align:start;writing-mode:lr-tb;text-anchor:start;stroke-width:7.08662003;stroke-miterlimit:4;stroke-dasharray:none">Network</tspan></text>
  <text
     xml:space="preserve"
     style="font-style:normal;font-weight:normal;font-size:20.00001717px;line-height:125%;font-family:sans-serif;letter-spacing:0px;word-spacing:0px;fill:#000000;fill-opacity:1;stroke:none;stroke-width:7.08662003;stroke-linecap:butt;stroke-linejoin:miter;stroke-opacity:1;stroke-miterlimit:4;stroke-dasharray:none"
     x="637.76849"
     y="293.15167"
     id="text4168-4-4"
     sodipodi:linespacing="125%"><tspan
       sodipodi:role="line"
       x="637.76849"
       y="293.15167"
       id="tspan4176-6-5"
       style="font-style:normal;font-variant:normal;font-weight:bold;font-stretch:normal;font-size:11.25000954px;line-height:125%;font-family:'Berlin Sans FB Demi';-inkscape-font-specification:'Berlin Sans FB Demi, Bold';text-align:start;writing-mode:lr-tb;text-anchor:start;stroke-width:7.08662003;stroke-miterlimit:4;stroke-dasharray:none">USB</tspan></text>
  <text
     xml:space="preserve"
     style="font-style:normal;font-weight:normal;font-size:20.00001717px;line-height:125%;font-family:sans-serif;letter-spacing:0px;word-spacing:0px;fill:#000000;fill-opacity:1;stroke:none;stroke-width:7.08662003;stroke-linecap:butt;stroke-linejoin:miter;stroke-opacity:1;stroke-miterlimit:4;stroke-dasharray:none"
     x="736.4953"
     y="291.53372"
     id="text4168-4-4-7"
     sodipodi:linespacing="125%"><tspan
       sodipodi:role="line"
       x="736.4953"
       y="291.53372"
       id="tspan4176-6-5-3"
       style="font-style:normal;font-variant:normal;font-weight:bold;font-stretch:normal;font-size:11.25000954px;line-height:125%;font-family:'Berlin Sans FB Demi';-inkscape-font-specification:'Berlin Sans FB Demi, Bold';text-align:start;writing-mode:lr-tb;text-anchor:start;stroke-width:7.08662003;stroke-miterlimit:4;stroke-dasharray:none">Power</tspan></text>
  <path
     style="fill:#ffffff;fill-opacity:1;fill-rule:evenodd;stroke:#000000;stroke-width:3.54331002;stroke-linecap:butt;stroke-linejoin:miter;stroke-miterlimit:4;stroke-dasharray:none;stroke-opacity:1"
     d="m 84.991586,126.91467 46.766364,0.37653 c 0,0 3.38886,0.75309 7.30488,-5.42218 3.91603,-6.17527 -3.61478,-13.10362 -6.47649,-13.40486 0,0 0.37653,-13.630781 -4.36788,-16.492491 -4.74441,-2.86171 -13.02831,-3.7654 -18.52581,-0.67777 -5.49748,3.08764 -6.5518,7.304894 -6.5518,7.304894 0,0 -5.497494,-3.464184 -10.091294,0.30123 -4.5938,3.765407 -4.66911,8.359207 -4.36788,9.940687 0,0 -6.02465,0 -7.83204,8.05797 -1.8074,8.05798 4.14195,10.01599 4.14195,10.01599 z"
     id="path4704"
     inkscape:connector-curvature="0" />
  <path
     style="fill:#000000;fill-opacity:1;fill-rule:evenodd;stroke:#000000;stroke-width:3.54331002;stroke-linecap:butt;stroke-linejoin:miter;stroke-miterlimit:4;stroke-dasharray:none;stroke-opacity:1"
     d="m 84.954806,127.00885 c 0,0 16.401294,23.64341 20.022344,30.14002 0,0 29.55426,4.52632 45.21002,-19.8626 0,0 -10.06442,-14.644 -10.91643,-15.17651 0,0 -2.72494,4.96147 -8.05003,5.28098 -5.32509,0.31951 -46.265904,-0.38189 -46.265904,-0.38189 z"
     id="path4706"
     inkscape:connector-curvature="0"
     sodipodi:nodetypes="ccccsc" />
  <circle
     style="fill:#ffffff;fill-opacity:0;stroke:#000000;stroke-width:3.54331002;stroke-miterlimit:4;stroke-dasharray:none;stroke-opacity:1"
     id="path4708"
     cx="110.74695"
     cy="108.99129"
     r="48.778305" />
  <text
     xml:space="preserve"
     style="font-style:normal;font-weight:normal;font-size:20.00001717px;line-height:125%;font-family:sans-serif;letter-spacing:0px;word-spacing:0px;fill:#000000;fill-opacity:1;stroke:none;stroke-width:7.08661985;stroke-linecap:butt;stroke-linejoin:miter;stroke-miterlimit:4;stroke-dasharray:none;stroke-opacity:1"
     x="162.46513"
     y="86.034409"
     id="text4168-0"
     sodipodi:linespacing="125%"><tspan
       sodipodi:role="line"
       x="162.46513"
       y="86.034409"
       id="tspan4176-39"
       style="font-style:normal;font-variant:normal;font-weight:bold;font-stretch:normal;font-size:27.50002289px;font-family:'Berlin Sans FB Demi';-inkscape-font-specification:'Berlin Sans FB Demi Bold';stroke-width:7.08661985;stroke-miterlimit:4;stroke-dasharray:none">BlueSKY</tspan></text>
</svg>
